<svg xmlns="http://www.w3.org/2000/svg" viewBox="0 0 787.85 182.02"><defs><style>.cls-1{fill:#282c33;}</style></defs><title>logotipo2</title><g id="Capa_2" data-name="Capa 2"><g id="Capa_2-2" data-name="Capa 2"><path class="cls-1" d="M197.75,144.88a2.32,2.32,0,0,1-1.67-.65,2.16,2.16,0,0,1-.69-1.65,2.23,2.23,0,0,1,.69-1.66,2.31,2.31,0,0,1,1.67-.68,2.19,2.19,0,0,1,1.64.68,2.25,2.25,0,0,1,.67,1.66,2.18,2.18,0,0,1-.67,1.65A2.21,2.21,0,0,1,197.75,144.88ZM196.28,182l.29-29.7h2.48l.29,29.7Z"/><path class="cls-1" d="M211.44,155.63q0,6.08,2.81,9.5a9.4,9.4,0,0,0,7.7,3.43,15.68,15.68,0,0,0,9.68-3.66v2.83A17.23,17.23,0,0,1,221.4,171a11.54,11.54,0,0,1-9.21-4.09c-2.35-2.72-3.52-6.58-3.52-11.55a16.52,16.52,0,0,1,3.67-10.88,11.86,11.86,0,0,1,9.55-4.42,10,10,0,0,1,8.44,3.86q2.94,3.87,2.94,10.55v1.18Zm19.07-2.42c-.12-3.4-.93-6-2.45-7.92a7.61,7.61,0,0,0-6.28-2.83,9.21,9.21,0,0,0-6.87,2.78,13.32,13.32,0,0,0-3.36,8Z"/><path class="cls-1" d="M239.06,169v-3.2a11.21,11.21,0,0,0,3.63,2,11.39,11.39,0,0,0,3.69.75q6.94,0,6.94-5.67a4.32,4.32,0,0,0-1.52-3.34,18.2,18.2,0,0,0-5-2.86,17,17,0,0,1-6-3.81,7.56,7.56,0,0,1,1-10.62,10.45,10.45,0,0,1,6.78-2.22,12.87,12.87,0,0,1,6.52,1.56v3a12.34,12.34,0,0,0-6.8-2.13,7.07,7.07,0,0,0-4.7,1.51,4.92,4.92,0,0,0-1.79,3.94,5,5,0,0,0,1.13,3.41q1.13,1.32,5,3a21.55,21.55,0,0,1,6.34,3.85,6.46,6.46,0,0,1,1.73,4.71,7.34,7.34,0,0,1-2.64,5.8,10.69,10.69,0,0,1-7.27,2.29A12.09,12.09,0,0,1,239.06,169Z"/><path class="cls-1" d="M291.32,169.86a9.19,9.19,0,0,1-3.89,1q-6.54,0-6.54-7.84V143.18h-5.3v-2.42h5.3V133.1l1.33-.46c.46-.14.9-.28,1.32-.43v8.55h7.78v2.42h-7.78v19.48a7.86,7.86,0,0,0,1,4.42,3.72,3.72,0,0,0,3.27,1.37,7.31,7.31,0,0,0,3.54-1.07Z"/><path class="cls-1" d="M316.65,170.26V164.9h-.12Q313.46,171,307,171q-10.45,0-10.45-13.16V140.76h2.68v16.4c0,4,.65,6.89,2,8.69s3.38,2.71,6.21,2.71a8.33,8.33,0,0,0,6.67-3,12.12,12.12,0,0,0,2.55-8.07V140.76h2.65v29.5Z"/><path class="cls-1" d="M343.38,169v-3.2a11.21,11.21,0,0,0,3.63,2,11.39,11.39,0,0,0,3.69.75q6.94,0,6.94-5.67a4.33,4.33,0,0,0-1.53-3.34,18.27,18.27,0,0,0-4.95-2.86,16.83,16.83,0,0,1-6-3.81,7.56,7.56,0,0,1,1-10.62A10.43,10.43,0,0,1,353,140a12.81,12.81,0,0,1,6.51,1.56v3a12.34,12.34,0,0,0-6.8-2.13,7,7,0,0,0-4.69,1.51,4.92,4.92,0,0,0-1.79,3.94,5.09,5.09,0,0,0,1.12,3.41q1.13,1.32,5,3a21.83,21.83,0,0,1,6.34,3.85,6.46,6.46,0,0,1,1.73,4.71,7.34,7.34,0,0,1-2.64,5.8A10.7,10.7,0,0,1,350.5,171,12,12,0,0,1,343.38,169Z"/><path class="cls-1" d="M379.65,171q-6.45,0-10.21-4.25t-3.76-11q0-7.35,3.93-11.5A13.63,13.63,0,0,1,380,140a12.65,12.65,0,0,1,10,4.12q3.66,4.13,3.66,11.41,0,6.88-3.73,11.15T379.65,171Zm.2-28.52a10.5,10.5,0,0,0-8.31,3.52q-3.09,3.51-3.1,9.76a13.76,13.76,0,0,0,3,9.31,10.35,10.35,0,0,0,8.27,3.51q5.33,0,8.21-3.45t2.88-9.6q0-6.3-2.87-9.68A10.08,10.08,0,0,0,379.85,142.46Z"/><path class="cls-1" d="M400.91,170.26V126.59h2.65v43.67Z"/><path class="cls-1" d="M432.49,170.26V164.9h-.12c-2.06,4.06-5.22,6.08-9.51,6.08q-10.46,0-10.45-13.16V140.76h2.67v16.4q0,6,2,8.69t6.21,2.71a8.3,8.3,0,0,0,6.66-3,12.07,12.07,0,0,0,2.56-8.07V140.76h2.65v29.5Z"/><path class="cls-1" d="M463.68,169a14.69,14.69,0,0,1-7.83,2,12.36,12.36,0,0,1-9.71-4.13q-3.69-4.14-3.69-10.82a16.27,16.27,0,0,1,4.15-11.51A13.91,13.91,0,0,1,457.26,140a16,16,0,0,1,6.54,1.39v3a13,13,0,0,0-6.94-2,10.64,10.64,0,0,0-8.42,3.73,14.26,14.26,0,0,0-3.22,9.67,13.79,13.79,0,0,0,2.95,9.22,9.72,9.72,0,0,0,7.79,3.48,12.81,12.81,0,0,0,7.72-2.36Z"/><path class="cls-1" d="M472.07,133.33a2.2,2.2,0,0,1-2.19-2.25,1.94,1.94,0,0,1,.68-1.54,2.25,2.25,0,0,1,1.51-.59,2.33,2.33,0,0,1,1.57.58,1.93,1.93,0,0,1,.68,1.55,2.27,2.27,0,0,1-2.25,2.25Zm-1.3,36.93v-29.5h2.65v29.5Z"/><path class="cls-1" d="M494.71,171q-6.45,0-10.21-4.25t-3.76-11q0-7.35,3.93-11.5A13.64,13.64,0,0,1,495,140a12.69,12.69,0,0,1,10,4.12c2.43,2.75,3.66,6.55,3.66,11.41q0,6.88-3.74,11.15T494.71,171Zm.2-28.52A10.52,10.52,0,0,0,486.6,146q-3.09,3.51-3.1,9.76a13.76,13.76,0,0,0,3,9.31,10.35,10.35,0,0,0,8.27,3.51q5.32,0,8.21-3.45t2.88-9.6q0-6.3-2.87-9.68A10.08,10.08,0,0,0,494.91,142.46ZM493.73,136h-2.59l6.74-9.45h3Z"/><path class="cls-1" d="M536,170.26V153.09q0-10.62-7.66-10.63a8.87,8.87,0,0,0-7,3.13,11.28,11.28,0,0,0-2.74,7.73v16.94H516v-29.5h2.65v5.36h.12A10.68,10.68,0,0,1,528.82,140a8.79,8.79,0,0,1,7.32,3.19q2.54,3.18,2.53,9.09v17.94Z"/><path class="cls-1" d="M551.21,170.78a2.18,2.18,0,0,1-1.65-.68,2.27,2.27,0,0,1-.66-1.65,2.23,2.23,0,0,1,.66-1.66,2.27,2.27,0,0,1,1.65-.65,2.37,2.37,0,0,1,1.67.65,2.18,2.18,0,0,1,.69,1.66,2.22,2.22,0,0,1-.69,1.65A2.27,2.27,0,0,1,551.21,170.78Zm1.18-12.13h-2.48l-.29-29.7h3Z"/><path d="M64.92,28.48a53.85,53.85,0,0,0-11.13-4.87,36.14,36.14,0,0,0-9.9-1.4,10.38,10.38,0,0,0-6.3,1.7,5.25,5.25,0,0,0-2.32,4.45,6.08,6.08,0,0,0,1.88,4.45q1.88,1.88,8.08,5.28,10,5.27,13.92,10.87t4,14.2A24.48,24.48,0,0,1,58.56,77.7,26.86,26.86,0,0,1,46,87.19a52.39,52.39,0,0,1-19,3.1,59.74,59.74,0,0,1-14.91-1.78A54.58,54.58,0,0,1,0,83.91L4.39,63.16q11.19,8.27,22.68,8.27,9.13,0,9.14-6.51A6.23,6.23,0,0,0,34,60,35.18,35.18,0,0,0,26,55.49Q16.53,51,12.45,45.5T8.38,31.35a25.75,25.75,0,0,1,4.45-14.74A27.32,27.32,0,0,1,25,6.71,45.2,45.2,0,0,1,43,3.4a65.8,65.8,0,0,1,14.5,1.46A101.51,101.51,0,0,1,69.08,8.2Z"/><path d="M122.7,58.36,134,88.83H106.76L98.09,58.59h-.24L91.41,88.83h-25L85.37,0h25l-12,56.43h.29l19.63-27.6H147Z"/><path d="M205.14,45.29q0,10.32-9.47,15.35t-29.15,5.63v.47a6,6,0,0,0,2.87,5.3A13.73,13.73,0,0,0,177.07,74a44.3,44.3,0,0,0,10.28-1.47A45.29,45.29,0,0,0,197.23,69l-3.46,16.35a50.18,50.18,0,0,1-11.1,3.55,63.71,63.71,0,0,1-13,1.37q-12.6,0-19.81-6.68t-7.2-18.28a39.38,39.38,0,0,1,4.95-19.45,34.37,34.37,0,0,1,13.65-13.71,40.87,40.87,0,0,1,20.07-4.81q11.37,0,17.61,4.63T205.14,45.29Zm-23-.11a3.83,3.83,0,0,0-.79-2.35,3.28,3.28,0,0,0-2.78-1,9,9,0,0,0-6.77,3,16.06,16.06,0,0,0-3.84,8.43q6.62,0,10.4-2A6.44,6.44,0,0,0,182.11,45.18Z"/><path d="M253.89,46.11H240.41L237,62.4a30.93,30.93,0,0,0-.82,6q0,3.57,4.16,3.57a23.71,23.71,0,0,0,8-1.64l-3.57,17.29a41,41,0,0,1-7.83,1.84,59.27,59.27,0,0,1-9.11.79q-17.28,0-17.28-16.34a36.43,36.43,0,0,1,.79-6.27q.8-4.17,4.48-21.57h-9.08l4.16-17.28h8.55L222.3,15l26-6-4.16,19.81h13.89Z"/><path d="M308.38,48.16q-3.87-2.52-10.31-2.52a15.45,15.45,0,0,0-11.52,4.87,16.58,16.58,0,0,0-4.71,12q0,9.49,10,9.49a26.39,26.39,0,0,0,6.27-.85,24.89,24.89,0,0,0,6.21-2.37l-3.46,17a36.81,36.81,0,0,1-9.23,3.34A44.53,44.53,0,0,1,282,90.29q-11.65,0-18.31-6.59T257,65.57a38.21,38.21,0,0,1,5.07-19.34,36.17,36.17,0,0,1,14.09-13.86,41.17,41.17,0,0,1,20.33-5q9.61,0,15.94,3.17Z"/><path d="M383.26,42.13a48.68,48.68,0,0,1-1.35,10.19l-7.67,36.51h-25l7.09-33.22a27.49,27.49,0,0,0,1-6c0-2.62-1.36-3.93-4.1-3.93q-3.17,0-6.85,4.19a20.57,20.57,0,0,0-4.81,9.47l-6.21,29.53h-25L329.24,0h25l-8.26,39.14h.23a37.28,37.28,0,0,1,11-8.58,25.71,25.71,0,0,1,11.72-3.2Q383.27,27.36,383.26,42.13Z"/><path d="M468.22,26.54a22.61,22.61,0,0,1-6.59,16.35q-6.58,6.8-17.55,8.73v.24q9.19,3.39,11.66,15l4.69,22H433.54l-3.11-18.69A16.16,16.16,0,0,0,427,62.08q-2.49-2.78-7.29-2.78h-.24l-6.21,29.53H388l17.75-84h33q13.95,0,21.74,5.69T468.22,26.54Zm-27,4.69a8.94,8.94,0,0,0-2.31-6.56c-1.55-1.56-3.86-2.35-6.95-2.35h-4.51l-4.33,19.22h5.62q5.68,0,9.08-3A9.36,9.36,0,0,0,441.21,31.23Z"/><path d="M533.38,45.29q0,10.32-9.46,15.35t-29.15,5.63v.47a6,6,0,0,0,2.87,5.3A13.67,13.67,0,0,0,505.31,74a44.45,44.45,0,0,0,10.29-1.47A45.38,45.38,0,0,0,525.47,69L522,85.37a50.18,50.18,0,0,1-11.1,3.55,63.63,63.63,0,0,1-13,1.37q-12.6,0-19.8-6.68t-7.21-18.28a39.38,39.38,0,0,1,4.95-19.45,34.37,34.37,0,0,1,13.65-13.71,40.87,40.87,0,0,1,20.07-4.81q11.37,0,17.61,4.63T533.38,45.29Zm-23-.11a3.83,3.83,0,0,0-.79-2.35,3.28,3.28,0,0,0-2.78-1,9,9,0,0,0-6.77,3,16.06,16.06,0,0,0-3.84,8.43q6.61,0,10.4-2A6.44,6.44,0,0,0,510.35,45.18Z"/><path d="M605.86,49.1a45.12,45.12,0,0,1-5.1,21.65,34.9,34.9,0,0,1-14.27,14.53,43.7,43.7,0,0,1-21.29,5c-.55,0-1.88-.06-4-.17a18.45,18.45,0,0,1-3.46-.35l-5.86,26.66H526.82l14.12-66.51c.89-4,1.7-8.06,2.4-12.24s1.11-7.13,1.23-8.85h24a98.3,98.3,0,0,1-1.29,10.66h.23q8.26-12.12,20.74-12.13a15.63,15.63,0,0,1,12.81,6Q605.86,39.43,605.86,49.1ZM581,53q0-7.32-5.63-7.33c-2.54,0-4.9,1.58-7.09,4.72s-4,7.73-5.39,13.74l-2.28,10a22.35,22.35,0,0,0,3.75.35q7,0,11.8-6.27A24.09,24.09,0,0,0,581,53Z"/><path d="M678.4,53.79A39.56,39.56,0,0,1,673.68,73a30.52,30.52,0,0,1-13.15,13,43.07,43.07,0,0,1-19.81,4.3q-13.89,0-21.47-7t-7.59-19.57a40.32,40.32,0,0,1,2.7-14.47,33.44,33.44,0,0,1,7.5-11.93,31.9,31.9,0,0,1,11.8-7.41,46.19,46.19,0,0,1,16-2.58q13.71,0,21.21,6.89T678.4,53.79Zm-24.85,0a9.42,9.42,0,0,0-1.69-6.07,5.63,5.63,0,0,0-4.57-2.08,7.62,7.62,0,0,0-5.63,2.49A17.26,17.26,0,0,0,637.88,55a29.66,29.66,0,0,0-1.38,9q0,4,1.73,6a5.81,5.81,0,0,0,4.66,2q4.8,0,7.74-5.15T653.55,53.79Z"/><path d="M732.89,50.21h-.12a14.14,14.14,0,0,0-6.38-1.46,13.9,13.9,0,0,0-9.88,3.52q-3.78,3.51-5.71,12.07l-5.16,24.49h-25l8.15-38.26a217.8,217.8,0,0,0,3.75-21.74h24.55q-.64,5.69-1.52,11.54h.23q3.45-6.67,7.47-9.84a14.67,14.67,0,0,1,9.35-3.17,22.15,22.15,0,0,1,5.27.77Z"/><path d="M783.69,46.11H770.21L766.76,62.4a30.18,30.18,0,0,0-.82,6c0,2.38,1.38,3.57,4.16,3.57a23.75,23.75,0,0,0,8-1.64l-3.58,17.29a40.84,40.84,0,0,1-7.82,1.84,59.38,59.38,0,0,1-9.11.79q-17.29,0-17.29-16.34a37.47,37.47,0,0,1,.79-6.27q.79-4.17,4.49-21.57h-9.09l4.16-17.28h8.56L752.11,15l26-6L774,28.83h13.89Z"/><line x1="3.37" y1="110.35" x2="783.37" y2="110.35"/><path d="M3.37,109.75c16.25-1.18,32.5-2,48.75-2.59l12.19-.48,12.19-.36c8.12-.23,16.25-.49,24.37-.64q24.38-.53,48.75-.67c16.25-.14,32.5-.06,48.75.33,32.5.78,65,2.71,97.5,3.07s65-.22,97.5-1.35l24.38-.81,12.18-.4,12.19-.32c16.25-.41,32.5-.63,48.75-.85l48.75-.6c16.25-.21,32.5-.2,48.75-.14s32.5.27,48.75.59l24.38.47,24.37.62c8.13.19,16.25.49,24.38.76l12.18.41,12.19.49c16.25.66,32.5,1.42,48.75,2.47V111c-16.25,1-32.5,1.81-48.75,2.47l-12.19.49-12.18.41c-8.13.27-16.25.57-24.38.75l-24.37.63-24.38.46c-16.25.33-32.5.49-48.75.6s-32.5.06-48.75-.14l-48.75-.6c-16.25-.23-32.5-.44-48.75-.86l-12.19-.32-12.18-.4-24.38-.81c-32.5-1.13-65-1.73-97.5-1.35s-65,2.3-97.5,3.07c-16.25.4-32.5.48-48.75.34s-32.5-.32-48.75-.67c-8.12-.15-16.25-.41-24.37-.64L64.31,114l-12.19-.47c-16.25-.63-32.5-1.41-48.75-2.59Z"/></g></g></svg>