<svg xmlns="http://www.w3.org/2000/svg" viewBox="0 0 585.52 52.39"><defs><style>.cls-1,.cls-2{fill:#fff;}.cls-2{stroke:#fff;stroke-miterlimit:10;stroke-width:2px;}</style></defs><title>logotipo3</title><g id="Capa_2" data-name="Capa 2"><g id="Capa_2-2" data-name="Capa 2"><path class="cls-1" d="M471.59,46.75V44.9a16,16,0,0,1,.31-3.33,11.1,11.1,0,0,1,.92-2.73,11.87,11.87,0,0,1,1.55-2.34,23.24,23.24,0,0,1,2.16-2.18c.82-.73,1.75-1.48,2.79-2.24l3.42-2.5q1.8-1.3,3.36-2.58a17.17,17.17,0,0,0,2.72-2.74A12,12,0,0,0,490.66,21a10.93,10.93,0,0,0,.68-4,8.24,8.24,0,0,0-2.17-6.1,8.24,8.24,0,0,0-6.1-2.17A11.93,11.93,0,0,0,478,9.91a20.34,20.34,0,0,0-4.81,3.24v-3A19.39,19.39,0,0,1,478,7.42a15.37,15.37,0,0,1,5.47-1,12.54,12.54,0,0,1,4.32.72,9.41,9.41,0,0,1,3.3,2.05,9.09,9.09,0,0,1,2.12,3.21,11.22,11.22,0,0,1,.75,4.2,14,14,0,0,1-.79,4.86,14.16,14.16,0,0,1-2.15,3.84,19.78,19.78,0,0,1-3.16,3.18q-1.81,1.45-3.83,2.89c-1.79,1.28-3.3,2.4-4.54,3.39a20.51,20.51,0,0,0-3,2.89,9.22,9.22,0,0,0-1.68,2.91,10.62,10.62,0,0,0-.51,3.45v.42h19.72v2.32Z"/><path class="cls-1" d="M512.39,47.44a9.62,9.62,0,0,1-8.58-5q-3.09-5-3.09-14.63,0-10.6,3.25-16a10.27,10.27,0,0,1,9.28-5.38q11.44,0,11.45,20.33,0,10.13-3.24,15.41A10.11,10.11,0,0,1,512.39,47.44ZM513,8.75q-4.57,0-7.11,4.67t-2.55,14q0,8.52,2.44,13.09t6.91,4.58q4.39,0,6.85-4.66T522,27.14Q522,8.75,513,8.75Z"/><path class="cls-1" d="M530,46.75V44.9a16,16,0,0,1,.31-3.33,11.1,11.1,0,0,1,.92-2.73,11.87,11.87,0,0,1,1.55-2.34,23.24,23.24,0,0,1,2.16-2.18c.82-.73,1.75-1.48,2.79-2.24l3.42-2.5q1.8-1.3,3.36-2.58a17.17,17.17,0,0,0,2.72-2.74A12,12,0,0,0,549,21a11.14,11.14,0,0,0,.68-4,8.24,8.24,0,0,0-2.17-6.1,8.24,8.24,0,0,0-6.1-2.17,11.93,11.93,0,0,0-5.12,1.16,20.34,20.34,0,0,0-4.81,3.24v-3a19.22,19.22,0,0,1,4.9-2.74,15.37,15.37,0,0,1,5.47-1,12.54,12.54,0,0,1,4.32.72,9.41,9.41,0,0,1,3.3,2.05,9.09,9.09,0,0,1,2.12,3.21,11.22,11.22,0,0,1,.75,4.2,14,14,0,0,1-.79,4.86,14.16,14.16,0,0,1-2.15,3.84,19.78,19.78,0,0,1-3.16,3.18q-1.82,1.45-3.83,2.89c-1.79,1.28-3.3,2.4-4.54,3.39a20,20,0,0,0-3,2.89,9.22,9.22,0,0,0-1.68,2.91,10.62,10.62,0,0,0-.51,3.45v.42h19.72v2.32Z"/><path class="cls-1" d="M579.32,7.09v27h6.2v2.3h-6.2V46.75h-2.54V36.38H557.86V33.89q2.65-3,5.39-6.49t5.24-7q2.5-3.54,4.61-7c1.4-2.28,2.57-4.4,3.51-6.33Zm-18.53,27h16V11.63c-1.35,2.32-2.74,4.57-4.19,6.74s-2.88,4.23-4.29,6.16-2.76,3.7-4,5.32S561.8,32.88,560.79,34.08Z"/><path class="cls-1" d="M29.12,12.77a24.44,24.44,0,0,0-5-2.18A16.21,16.21,0,0,0,19.68,10a4.65,4.65,0,0,0-2.82.76,2.38,2.38,0,0,0-1,2,2.74,2.74,0,0,0,.84,2,17.92,17.92,0,0,0,3.63,2.36A17.55,17.55,0,0,1,26.53,22a10.79,10.79,0,0,1,1.77,6.37,11,11,0,0,1-2,6.52,12.1,12.1,0,0,1-5.63,4.26,23.62,23.62,0,0,1-8.5,1.39,27,27,0,0,1-6.69-.8A24.58,24.58,0,0,1,0,37.63l2-9.3A17,17,0,0,0,12.14,32c2.73,0,4.1-1,4.1-2.92a2.81,2.81,0,0,0-1-2.2,16,16,0,0,0-3.56-2,15.69,15.69,0,0,1-6.09-4.48,10.49,10.49,0,0,1-1.82-6.35,11.47,11.47,0,0,1,2-6.61A12.23,12.23,0,0,1,11.22,3a20.3,20.3,0,0,1,8-1.49,29.25,29.25,0,0,1,6.51.66A45,45,0,0,1,31,3.68Z"/><path class="cls-1" d="M55,26.18,60.1,39.84H47.88L44,26.28h-.1L41,39.84H29.8L38.29,0h11.2L44.1,25.31h.13L53,12.93H65.91Z"/><path class="cls-1" d="M92,20.31a7.35,7.35,0,0,1-4.25,6.89q-4.24,2.27-13.07,2.52v.21A2.7,2.7,0,0,0,76,32.31a6.13,6.13,0,0,0,3.44.86A19.8,19.8,0,0,0,84,32.51,20.71,20.71,0,0,0,88.46,31l-1.55,7.33a22.46,22.46,0,0,1-5,1.59,28.37,28.37,0,0,1-5.85.62c-3.76,0-6.73-1-8.88-3A10.6,10.6,0,0,1,64,29.3a17.64,17.64,0,0,1,2.22-8.72,15.35,15.35,0,0,1,6.12-6.15,18.27,18.27,0,0,1,9-2.16c3.4,0,6,.7,7.9,2.08A7,7,0,0,1,92,20.31Zm-10.33,0a1.77,1.77,0,0,0-.35-1.05,1.5,1.5,0,0,0-1.25-.47,4,4,0,0,0-3,1.34,7.23,7.23,0,0,0-1.72,3.78A10.24,10.24,0,0,0,80,23,2.89,2.89,0,0,0,81.68,20.26Z"/><path class="cls-1" d="M113.87,20.68h-6L106.28,28a13.33,13.33,0,0,0-.37,2.71c0,1.06.62,1.6,1.87,1.6a10.74,10.74,0,0,0,3.6-.74l-1.61,7.76a18,18,0,0,1-3.5.82,26.46,26.46,0,0,1-4.09.36q-7.75,0-7.75-7.33a16.19,16.19,0,0,1,.35-2.82q.36-1.86,2-9.67H92.72l1.86-7.75h3.84l1.29-6.2,11.67-2.68-1.87,8.88h6.23Z"/><path class="cls-1" d="M138.31,21.6a8.36,8.36,0,0,0-4.62-1.13,6.93,6.93,0,0,0-5.16,2.18A7.41,7.41,0,0,0,126.41,28q0,4.26,4.47,4.26a12.06,12.06,0,0,0,2.81-.38,11.56,11.56,0,0,0,2.79-1.07l-1.56,7.65a16.24,16.24,0,0,1-4.13,1.5,20.14,20.14,0,0,1-4.33.5,11.17,11.17,0,0,1-8.21-3,10.92,10.92,0,0,1-3-8.13,17.06,17.06,0,0,1,2.27-8.67,16.22,16.22,0,0,1,6.32-6.22A18.46,18.46,0,0,1,133,12.27a16,16,0,0,1,7.15,1.42Z"/><path class="cls-1" d="M171.9,18.9a22,22,0,0,1-.6,4.57l-3.45,16.37H156.66l3.18-14.9a12.11,12.11,0,0,0,.45-2.71c0-1.17-.62-1.76-1.84-1.76-.95,0-2,.63-3.08,1.88a9.2,9.2,0,0,0-2.15,4.25l-2.79,13.24h-11.2L147.67,0h11.2l-3.71,17.56h.11a16.4,16.4,0,0,1,4.91-3.85,11.51,11.51,0,0,1,5.26-1.44Q171.91,12.27,171.9,18.9Z"/><path class="cls-1" d="M210,11.91a10.16,10.16,0,0,1-3,7.33,14,14,0,0,1-7.87,3.91v.11c2.75,1,4.49,3.26,5.23,6.73l2.1,9.85H194.45l-1.39-8.38a7.31,7.31,0,0,0-1.54-3.62,4.16,4.16,0,0,0-3.27-1.24h-.11l-2.78,13.24H174l8-37.68h14.79q6.26,0,9.75,2.54A8.4,8.4,0,0,1,210,11.91ZM197.89,14a4,4,0,0,0-1-2.95A4.19,4.19,0,0,0,193.74,10h-2l-1.95,8.62h2.53a5.93,5.93,0,0,0,4.07-1.34A4.22,4.22,0,0,0,197.89,14Z"/><path class="cls-1" d="M239.23,20.31A7.34,7.34,0,0,1,235,27.2q-4.25,2.27-13.08,2.52v.21a2.7,2.7,0,0,0,1.29,2.38,6.15,6.15,0,0,0,3.44.86,20,20,0,0,0,4.62-.66A20.6,20.6,0,0,0,235.68,31l-1.55,7.33a22.12,22.12,0,0,1-5,1.59,28.35,28.35,0,0,1-5.84.62q-5.66,0-8.89-3a10.64,10.64,0,0,1-3.23-8.2,17.64,17.64,0,0,1,2.22-8.72,15.31,15.31,0,0,1,6.13-6.15,18.27,18.27,0,0,1,9-2.16c3.39,0,6,.7,7.89,2.08A7,7,0,0,1,239.23,20.31Zm-10.33,0a1.7,1.7,0,0,0-.35-1.05,1.48,1.48,0,0,0-1.25-.47,4,4,0,0,0-3,1.34,7.24,7.24,0,0,0-1.73,3.78,10.21,10.21,0,0,0,4.67-.89A2.89,2.89,0,0,0,228.9,20.26Z"/><path class="cls-1" d="M271.74,22a20.26,20.26,0,0,1-2.28,9.71,15.72,15.72,0,0,1-6.4,6.52,19.63,19.63,0,0,1-9.56,2.25c-.24,0-.84,0-1.78-.08a7.51,7.51,0,0,1-1.55-.16l-2.63,12H236.29l6.33-29.83c.41-1.79.76-3.62,1.08-5.49s.5-3.2.55-4H255a43,43,0,0,1-.58,4.78h.11q3.71-5.43,9.3-5.44A7,7,0,0,1,269.57,15,10.88,10.88,0,0,1,271.74,22ZM260.6,23.76c0-2.19-.84-3.29-2.52-3.29-1.14,0-2.2.71-3.18,2.12a18,18,0,0,0-2.42,6.16l-1,4.47a11,11,0,0,0,1.68.16,6.49,6.49,0,0,0,5.3-2.82A10.77,10.77,0,0,0,260.6,23.76Z"/><path class="cls-1" d="M304.28,24.13a17.76,17.76,0,0,1-2.12,8.6,13.74,13.74,0,0,1-5.9,5.84,19.37,19.37,0,0,1-8.88,1.93q-6.22,0-9.63-3.13t-3.41-8.78a18.28,18.28,0,0,1,1.21-6.49,15.13,15.13,0,0,1,3.37-5.35,14.32,14.32,0,0,1,5.29-3.32,20.73,20.73,0,0,1,7.19-1.16q6.15,0,9.51,3.09T304.28,24.13Zm-11.15,0a4.18,4.18,0,0,0-.76-2.72,2.49,2.49,0,0,0-2.05-.94,3.38,3.38,0,0,0-2.52,1.12,7.75,7.75,0,0,0-1.7,3.07,13.41,13.41,0,0,0-.61,4,4,4,0,0,0,.77,2.69,2.59,2.59,0,0,0,2.09.91A3.92,3.92,0,0,0,291.82,30,11.74,11.74,0,0,0,293.13,24.13Z"/><path class="cls-1" d="M328.72,22.52h-.05a6.33,6.33,0,0,0-2.87-.65,6.25,6.25,0,0,0-4.43,1.57q-1.69,1.57-2.56,5.42l-2.31,11H305.3L309,22.68a98,98,0,0,0,1.69-9.75h11c-.19,1.7-.42,3.43-.68,5.18h.1a13.34,13.34,0,0,1,3.35-4.42,6.61,6.61,0,0,1,4.19-1.42,10.36,10.36,0,0,1,2.37.34Z"/><path class="cls-1" d="M351.5,20.68h-6L343.91,28a13.33,13.33,0,0,0-.37,2.71c0,1.06.62,1.6,1.87,1.6a10.74,10.74,0,0,0,3.6-.74l-1.61,7.76a18,18,0,0,1-3.51.82,26.24,26.24,0,0,1-4.08.36q-7.76,0-7.75-7.33a16.19,16.19,0,0,1,.35-2.82q.36-1.86,2-9.67h-4.07l1.86-7.75h3.84l1.29-6.2L349,4.05l-1.87,8.88h6.23Z"/><line class="cls-1" x1="1.51" y1="49.49" x2="351.36" y2="49.49"/><path class="cls-1" d="M1.51,49.22c7.29-.52,14.58-.88,21.87-1.16l5.46-.21,5.47-.16c3.64-.11,7.29-.22,10.93-.29q10.93-.24,21.87-.3c7.29-.06,14.58,0,21.86.15,14.58.35,29.16,1.21,43.73,1.38s29.16-.1,43.74-.61l10.93-.36,5.46-.18,5.47-.15c7.29-.18,14.58-.28,21.87-.38L242,46.68c7.29-.09,14.58-.09,21.87-.06s14.57.12,21.86.27l10.94.2,10.93.28c3.64.09,7.29.22,10.93.34l5.47.19,5.46.22c7.29.29,14.58.64,21.87,1.1v.54c-7.29.47-14.58.82-21.87,1.11l-5.46.22-5.47.19c-3.64.12-7.29.25-10.93.33l-10.93.28-10.94.21c-7.29.15-14.57.22-21.86.27s-14.58,0-21.87-.06L220.17,52c-7.29-.1-14.58-.2-21.87-.39l-5.47-.14-5.46-.18L176.44,51c-14.58-.51-29.16-.78-43.74-.61s-29.15,1-43.73,1.38q-10.92.25-21.86.15t-21.87-.3c-3.64-.07-7.29-.18-10.93-.29l-5.47-.16-5.46-.21c-7.29-.29-14.58-.64-21.87-1.17Z"/><line class="cls-2" x1="370.8" y1="29.64" x2="441.93" y2="29.64"/></g></g></svg>